<svg xmlns="http://www.w3.org/2000/svg" width="200" height="200"><g fill="#EF26C4"><path d="M186.781 68.331c4.52 13.093 5.098 25.547 5.014 31.973-.088 6.824-1.254 18.537-5.262 29.714-2.477 6.906-5.451 13.146-8.033 17.25-2.488 3.957-3.273 5.143-4.152 6.428-1.006 1.467-.314 3.064.578 3.816 1.172.988 3.332.424 4.006-.521 1.484-2.074 3.947-5.479 8.078-13.609 4.01-7.889 9.301-21.113 10.312-39.389.986-17.875-3.215-32.939-7.592-43.919-4.256-10.084-9.365-17.472-11.512-20.437-1.357-1.818-5.291-7.209-12.482-14.025-4.82-4.567-11.104-9.324-17.654-13.058-24.061-13.708-54.185-18.872-84.032-1.6-29.847 17.271-31.678 41.101-29.738 62.964 1.94 21.862 13.253 39.844 16.162 45.748-3.422 4.865-6.788 10.656-6.464 20.82.323 10.168 5.973 17.207 16.808 16.889 11.232-.326 17.294-9.18 15.031-25.986-2.187-16.246-12.606-25.99-20.688-46.814-8.081-20.823-6.174-36.745-5.818-39.515.442-3.437.97-19.184 21.981-31.481 12.405-7.261 27.799-9.299 44.5-6.971 10.488 1.935 19.719 5.541 26.465 9.26 4.59 2.275 9.234 5.535 13.029 8.437 5.188 3.965 10.875 9.242 17.02 17.016 6.953 8.796 11.158 17.494 14.443 27.01zm-126.2 71.394c.965 7.568-.57 11.256-5.388 10.93-5.201-.355-6.547-6.316-6.68-10.055-.139-3.883-.215-9.621 4.957-17.49-.001-.001 6.142 9.013 7.111 16.615z"/><path d="M123.246 132.27c-2.186-16.246-20.887-46.699-20.887-46.699a176.007 176.007 0 01-4.081-8.267c3.421-4.869 7.999-11.341 7.675-21.507-.322-10.166-5.975-17.204-16.809-16.888-11.233.328-17.294 9.182-15.031 25.988C76.3 81.144 95 111.596 95 111.596a176.519 176.519 0 014.082 8.268c-3.422 4.869-7.997 11.342-7.674 21.506.324 10.168 5.975 17.205 16.807 16.889 11.232-.327 17.295-9.183 15.031-25.989zM94.769 45.632c5.203.354 6.548 6.316 6.683 10.055.139 3.882.215 9.619-4.958 17.49 0 0-6.145-9.013-7.111-16.615-.966-7.568.569-11.259 5.386-10.93zm7.825 105.905c-5.204-.355-6.549-6.318-6.683-10.059-.14-3.879-.214-9.617 4.956-17.49 0 0 6.145 9.014 7.112 16.615.964 7.571-.571 11.26-5.385 10.934z"/><path d="M147.166 76.822s-34.631 32.411-46.299 47.167c-.14-1.748-1.785-4.125-1.785-4.125s25.932-29.215 45.09-46.486c.517 2.405 2.994 3.444 2.994 3.444zM50.594 120s34.632-32.411 46.301-47.168c.139 1.748 1.786 4.125 1.786 4.125s-25.934 29.213-45.092 46.484c-.518-2.406-2.995-3.441-2.995-3.441z"/><path d="M11.687 128.6c-4.52-13.094-5.097-25.545-5.014-31.972.088-6.824 1.253-18.539 5.261-29.715 2.477-6.906 5.452-13.145 8.033-17.249 2.489-3.958 3.274-5.145 4.154-6.429 1.006-1.468.313-3.064-.579-3.816-1.172-.989-3.332-.423-4.008.521-1.483 2.075-3.946 5.479-8.077 13.61-4.009 7.889-9.3 21.113-10.312 39.387-.989 17.875 3.213 32.939 7.592 43.92 4.255 10.084 9.364 17.473 11.512 20.438 1.357 1.816 5.29 7.209 12.482 14.023 4.82 4.566 11.104 9.324 17.656 13.057 24.059 13.711 54.183 18.873 84.031 1.602 29.846-17.271 31.68-41.102 29.738-62.965-1.941-21.861-13.254-39.842-16.162-45.747 3.422-4.868 6.787-10.658 6.465-20.823-.326-10.167-5.975-17.206-16.811-16.888-11.23.328-17.293 9.18-15.031 25.987 2.189 16.246 12.609 25.99 20.688 46.813 8.082 20.822 6.176 36.746 5.82 39.516-.441 3.438-.971 19.184-21.98 31.482-12.406 7.26-27.798 9.299-44.501 6.969-10.487-1.934-19.718-5.541-26.465-9.26-4.59-2.275-9.233-5.535-13.029-8.436-5.187-3.965-10.876-9.244-17.02-17.018-6.953-8.793-11.159-17.492-14.443-27.007zm126.2-71.393c-.963-7.57.57-11.257 5.387-10.931 5.203.356 6.549 6.316 6.682 10.056.139 3.882.217 9.621-4.957 17.49-.001 0-6.144-9.014-7.112-16.615z"/></g></svg>